<svg width="183" height="46" viewBox="0 0 183 46" fill="none" xmlns="http://www.w3.org/2000/svg">
<rect width="46" height="46" rx="12" fill="black"/>
<path d="M15.066 31.144C14.058 31.144 13.186 30.944 12.45 30.544C11.73 30.128 11.13 29.568 10.65 28.864C10.186 28.144 9.84197 27.336 9.61797 26.44C9.40997 25.528 9.32197 24.584 9.35397 23.608C9.41797 21.864 9.73797 20.36 10.314 19.096C10.89 17.832 11.618 16.792 12.498 15.976C13.378 15.16 14.322 14.56 15.33 14.176C16.354 13.776 17.338 13.576 18.282 13.576C19.082 13.576 19.802 13.712 20.442 13.984C21.098 14.24 21.618 14.624 22.002 15.136C22.386 15.632 22.578 16.24 22.578 16.96C22.578 17.52 22.41 18.064 22.074 18.592C21.754 19.104 21.258 19.528 20.586 19.864C19.93 20.184 19.082 20.344 18.042 20.344C18.218 19.832 18.346 19.384 18.426 19C18.506 18.616 18.546 18.288 18.546 18.016C18.546 17.456 18.418 17.08 18.162 16.888C17.906 16.68 17.586 16.576 17.202 16.576C16.738 16.576 16.298 16.744 15.882 17.08C15.466 17.416 15.09 17.872 14.754 18.448C14.434 19.008 14.178 19.632 13.986 20.32C13.794 21.008 13.682 21.704 13.65 22.408C13.586 24.184 13.842 25.528 14.418 26.44C14.994 27.352 15.738 27.808 16.65 27.808C17.354 27.808 18.13 27.52 18.978 26.944C19.842 26.368 20.69 25.496 21.522 24.328L21.834 24.472C21.626 25.912 21.17 27.128 20.466 28.12C19.762 29.112 18.93 29.864 17.97 30.376C17.026 30.888 16.058 31.144 15.066 31.144ZM29.1932 31.168C27.7372 31.168 26.5452 30.896 25.6172 30.352C24.6892 29.808 24.2252 28.92 24.2252 27.688C24.2252 27.56 24.2252 27.448 24.2252 27.352C24.2412 27.24 24.2572 27.152 24.2732 27.088C24.3372 26.64 24.4732 26.088 24.6812 25.432C24.8892 24.776 25.1292 24.08 25.4012 23.344C25.6732 22.592 25.9372 21.856 26.1932 21.136C26.4492 20.416 26.6652 19.76 26.8412 19.168C27.0172 18.56 27.1052 18.072 27.1052 17.704C27.1052 17.288 26.9692 17.08 26.6972 17.08C26.3932 17.08 26.0172 17.312 25.5692 17.776C25.1212 18.224 24.6492 18.856 24.1532 19.672L24.0092 19.6C24.0092 18.544 24.2172 17.632 24.6332 16.864C25.0492 16.096 25.6012 15.464 26.2892 14.968C26.9772 14.456 27.7452 14.08 28.5932 13.84C29.4412 13.6 30.2972 13.48 31.1612 13.48C32.2332 13.48 33.2412 13.656 34.1852 14.008C35.1292 14.344 35.8972 14.832 36.4892 15.472C37.0972 16.112 37.4012 16.896 37.4012 17.824C37.4012 19.488 36.3852 20.784 34.3532 21.712C35.5532 21.984 36.4332 22.44 36.9932 23.08C37.5532 23.72 37.8332 24.432 37.8332 25.216C37.8332 25.904 37.6252 26.6 37.2092 27.304C36.8092 27.992 36.2332 28.632 35.4812 29.224C34.7292 29.8 33.8172 30.272 32.7452 30.64C31.6892 30.992 30.5052 31.168 29.1932 31.168ZM30.1292 20.992C30.8652 21.008 31.5052 20.896 32.0492 20.656C32.6092 20.4 33.0412 20.08 33.3452 19.696C33.6652 19.296 33.8252 18.888 33.8252 18.472C33.8252 17.928 33.5372 17.448 32.9612 17.032C32.3852 16.6 31.4812 16.384 30.2492 16.384C30.3132 16.688 30.3532 16.992 30.3692 17.296C30.4012 17.6 30.4172 17.896 30.4172 18.184C30.4172 18.648 30.3852 19.112 30.3212 19.576C30.2732 20.04 30.2092 20.512 30.1292 20.992ZM29.8652 28.24C30.5532 28.24 31.1612 28.104 31.6892 27.832C32.2172 27.544 32.6332 27.184 32.9372 26.752C33.2412 26.304 33.3932 25.848 33.3932 25.384C33.3932 24.744 33.0892 24.152 32.4812 23.608C31.8732 23.064 30.9212 22.728 29.6252 22.6C29.5612 23.096 29.4252 23.624 29.2172 24.184C29.0252 24.744 28.8412 25.28 28.6652 25.792C28.4892 26.304 28.4012 26.752 28.4012 27.136C28.4012 27.472 28.5052 27.744 28.7132 27.952C28.9212 28.144 29.3052 28.24 29.8652 28.24Z" fill="white"/>
<path d="M60.7535 31.144C59.7455 31.144 58.8735 30.944 58.1375 30.544C57.4175 30.128 56.8175 29.568 56.3375 28.864C55.8735 28.144 55.5295 27.336 55.3055 26.44C55.0975 25.528 55.0095 24.584 55.0415 23.608C55.1055 21.864 55.4255 20.36 56.0015 19.096C56.5775 17.832 57.3055 16.792 58.1855 15.976C59.0655 15.16 60.0095 14.56 61.0175 14.176C62.0415 13.776 63.0255 13.576 63.9695 13.576C64.7695 13.576 65.4895 13.712 66.1295 13.984C66.7855 14.24 67.3055 14.624 67.6895 15.136C68.0735 15.632 68.2655 16.24 68.2655 16.96C68.2655 17.52 68.0975 18.064 67.7615 18.592C67.4415 19.104 66.9455 19.528 66.2735 19.864C65.6175 20.184 64.7695 20.344 63.7295 20.344C63.9055 19.832 64.0335 19.384 64.1135 19C64.1935 18.616 64.2335 18.288 64.2335 18.016C64.2335 17.456 64.1055 17.08 63.8495 16.888C63.5935 16.68 63.2735 16.576 62.8895 16.576C62.4255 16.576 61.9855 16.744 61.5695 17.08C61.1535 17.416 60.7775 17.872 60.4415 18.448C60.1215 19.008 59.8655 19.632 59.6735 20.32C59.4815 21.008 59.3695 21.704 59.3375 22.408C59.2735 24.184 59.5295 25.528 60.1055 26.44C60.6815 27.352 61.4255 27.808 62.3375 27.808C63.0415 27.808 63.8175 27.52 64.6655 26.944C65.5295 26.368 66.3775 25.496 67.2095 24.328L67.5215 24.472C67.3135 25.912 66.8575 27.128 66.1535 28.12C65.4495 29.112 64.6175 29.864 63.6575 30.376C62.7135 30.888 61.7455 31.144 60.7535 31.144ZM77.5302 31.12C76.9702 31.12 76.4822 30.936 76.0662 30.568C75.6502 30.2 75.4422 29.6 75.4422 28.768C75.4422 28.688 75.4422 28.608 75.4422 28.528C75.4422 28.448 75.4502 28.368 75.4662 28.288C74.9862 29.248 74.4422 29.96 73.8342 30.424C73.2422 30.872 72.6422 31.096 72.0342 31.096C71.4742 31.096 70.9462 30.904 70.4502 30.52C69.9542 30.12 69.5542 29.536 69.2502 28.768C68.9462 28 68.7942 27.072 68.7942 25.984C68.7942 24.864 68.9462 23.864 69.2502 22.984C69.5702 22.104 69.9862 21.36 70.4982 20.752C71.0102 20.144 71.5702 19.688 72.1782 19.384C72.7862 19.064 73.3782 18.904 73.9542 18.904C74.5942 18.904 75.1702 19.104 75.6822 19.504C76.1942 19.888 76.5462 20.504 76.7382 21.352C76.7862 21.08 76.8182 20.832 76.8342 20.608C76.8662 20.384 76.8822 20.232 76.8822 20.152C76.8982 19.72 77.1142 19.4 77.5302 19.192C77.9622 18.984 78.4342 18.88 78.9462 18.88C79.3942 18.88 79.8182 18.968 80.2182 19.144C80.6182 19.32 80.8902 19.616 81.0342 20.032L81.0822 20.176C80.8902 20.608 80.6982 21.128 80.5062 21.736C80.3142 22.344 80.1382 22.984 79.9782 23.656C79.8182 24.312 79.6902 24.96 79.5942 25.6C79.4982 26.224 79.4502 26.776 79.4502 27.256C79.4502 27.784 79.5062 28.152 79.6182 28.36C79.7302 28.552 79.8662 28.648 80.0262 28.648C80.2982 28.648 80.5462 28.456 80.7702 28.072L80.9622 28.168C80.9622 28.712 80.7862 29.208 80.4342 29.656C80.0822 30.104 79.6422 30.464 79.1142 30.736C78.5862 30.992 78.0582 31.12 77.5302 31.12ZM73.6182 28.072C74.0342 28.072 74.4902 27.704 74.9862 26.968C75.4982 26.216 75.9382 25.144 76.3062 23.752C76.3382 23.608 76.3702 23.472 76.4022 23.344C76.4342 23.2 76.4582 23.064 76.4742 22.936C76.2182 22.344 75.9462 21.928 75.6582 21.688C75.3862 21.432 75.1142 21.304 74.8422 21.304C74.4422 21.304 74.0662 21.52 73.7142 21.952C73.3782 22.368 73.0982 22.896 72.8742 23.536C72.6662 24.176 72.5622 24.816 72.5622 25.456C72.5622 26.336 72.6582 26.992 72.8502 27.424C73.0582 27.856 73.3142 28.072 73.6182 28.072ZM85.1491 31.096C84.5731 31.096 84.0611 30.864 83.6131 30.4C83.1651 29.92 82.9411 29.248 82.9411 28.384C82.9411 27.968 82.9891 27.496 83.0851 26.968C83.1811 26.44 83.2931 25.904 83.4211 25.36C83.5491 24.8 83.6611 24.28 83.7571 23.8C83.8531 23.304 83.9011 22.896 83.9011 22.576C83.9011 22.24 83.8371 21.976 83.7091 21.784C83.5971 21.576 83.4451 21.472 83.2531 21.472C82.9491 21.472 82.6371 21.68 82.3171 22.096L82.1731 22C82.1571 21.744 82.2131 21.44 82.3411 21.088C82.4691 20.736 82.6691 20.4 82.9411 20.08C83.2131 19.744 83.5571 19.464 83.9731 19.24C84.4051 19.016 84.9091 18.904 85.4851 18.904C86.3331 18.904 86.9491 19.152 87.3331 19.648C87.7171 20.128 87.9091 20.712 87.9091 21.4C87.9091 21.512 87.9011 21.632 87.8851 21.76C87.8851 21.872 87.8771 21.984 87.8611 22.096C88.4371 21.056 89.0371 20.264 89.6611 19.72C90.3011 19.16 90.8931 18.88 91.4371 18.88C91.9491 18.88 92.3251 19.08 92.5651 19.48C92.8051 19.88 92.9251 20.36 92.9251 20.92C92.9251 21.432 92.8211 21.952 92.6131 22.48C92.4211 23.008 92.1251 23.448 91.7251 23.8C91.3411 24.136 90.8691 24.296 90.3091 24.28L90.2131 24.232C90.1971 23.816 90.0611 23.488 89.8051 23.248C89.5491 23.008 89.2611 22.888 88.9411 22.888C88.5091 22.888 88.1011 23.104 87.7171 23.536C87.3491 23.968 87.1651 24.592 87.1651 25.408C87.1651 25.904 87.2211 26.44 87.3331 27.016C87.4451 27.592 87.5011 28.08 87.5011 28.48C87.5011 28.96 87.3891 29.4 87.1651 29.8C86.9411 30.2 86.6531 30.52 86.3011 30.76C85.9491 30.984 85.5651 31.096 85.1491 31.096ZM98.2589 31.168C97.0909 31.168 96.1229 30.936 95.3549 30.472C94.5869 29.992 94.0109 29.368 93.6269 28.6C93.2429 27.816 93.0509 26.976 93.0509 26.08C93.0509 25.232 93.2109 24.384 93.5309 23.536C93.8669 22.672 94.3469 21.888 94.9709 21.184C95.6109 20.48 96.3789 19.912 97.2749 19.48C98.1869 19.048 99.2109 18.832 100.347 18.832C101.755 18.832 102.779 19.152 103.419 19.792C104.075 20.416 104.403 21.176 104.403 22.072C104.403 22.84 104.195 23.552 103.779 24.208C103.379 24.848 102.843 25.368 102.171 25.768C101.499 26.152 100.763 26.344 99.9629 26.344C99.5469 26.344 99.1229 26.28 98.6909 26.152C98.2589 26.024 97.8349 25.824 97.4189 25.552C97.4989 26.544 97.7869 27.264 98.2829 27.712C98.7789 28.16 99.3709 28.384 100.059 28.384C100.539 28.384 101.019 28.296 101.499 28.12C101.979 27.928 102.419 27.688 102.819 27.4C103.235 27.096 103.555 26.776 103.779 26.44L103.947 26.56C103.947 27.392 103.771 28.104 103.419 28.696C103.083 29.272 102.635 29.744 102.075 30.112C101.515 30.48 100.899 30.752 100.227 30.928C99.5709 31.088 98.9149 31.168 98.2589 31.168ZM98.8109 24.688C99.3229 24.688 99.7389 24.544 100.059 24.256C100.379 23.952 100.619 23.6 100.779 23.2C100.939 22.8 101.019 22.448 101.019 22.144C101.019 21.776 100.915 21.472 100.707 21.232C100.499 20.976 100.211 20.848 99.8429 20.848C99.5549 20.848 99.2349 20.952 98.8829 21.16C98.5469 21.368 98.2429 21.728 97.9709 22.24C97.6989 22.736 97.5229 23.432 97.4429 24.328C97.9549 24.568 98.4109 24.688 98.8109 24.688ZM115.615 31.168C114.159 31.168 112.967 30.896 112.039 30.352C111.111 29.808 110.647 28.92 110.647 27.688C110.647 27.56 110.647 27.448 110.647 27.352C110.663 27.24 110.679 27.152 110.695 27.088C110.759 26.64 110.895 26.088 111.103 25.432C111.311 24.776 111.551 24.08 111.823 23.344C112.095 22.592 112.359 21.856 112.615 21.136C112.871 20.416 113.087 19.76 113.263 19.168C113.439 18.56 113.527 18.072 113.527 17.704C113.527 17.288 113.391 17.08 113.119 17.08C112.815 17.08 112.439 17.312 111.991 17.776C111.543 18.224 111.071 18.856 110.575 19.672L110.431 19.6C110.431 18.544 110.639 17.632 111.055 16.864C111.471 16.096 112.023 15.464 112.711 14.968C113.399 14.456 114.167 14.08 115.015 13.84C115.863 13.6 116.719 13.48 117.583 13.48C118.655 13.48 119.663 13.656 120.607 14.008C121.551 14.344 122.319 14.832 122.911 15.472C123.519 16.112 123.823 16.896 123.823 17.824C123.823 19.488 122.807 20.784 120.775 21.712C121.975 21.984 122.855 22.44 123.415 23.08C123.975 23.72 124.255 24.432 124.255 25.216C124.255 25.904 124.047 26.6 123.631 27.304C123.231 27.992 122.655 28.632 121.903 29.224C121.151 29.8 120.239 30.272 119.167 30.64C118.111 30.992 116.927 31.168 115.615 31.168ZM116.551 20.992C117.287 21.008 117.927 20.896 118.471 20.656C119.031 20.4 119.463 20.08 119.767 19.696C120.087 19.296 120.247 18.888 120.247 18.472C120.247 17.928 119.959 17.448 119.383 17.032C118.807 16.6 117.903 16.384 116.671 16.384C116.735 16.688 116.775 16.992 116.791 17.296C116.823 17.6 116.839 17.896 116.839 18.184C116.839 18.648 116.807 19.112 116.743 19.576C116.695 20.04 116.631 20.512 116.551 20.992ZM116.287 28.24C116.975 28.24 117.583 28.104 118.111 27.832C118.639 27.544 119.055 27.184 119.359 26.752C119.663 26.304 119.815 25.848 119.815 25.384C119.815 24.744 119.511 24.152 118.903 23.608C118.295 23.064 117.343 22.728 116.047 22.6C115.983 23.096 115.847 23.624 115.639 24.184C115.447 24.744 115.263 25.28 115.087 25.792C114.911 26.304 114.823 26.752 114.823 27.136C114.823 27.472 114.927 27.744 115.135 27.952C115.343 28.144 115.727 28.24 116.287 28.24ZM128.274 31.096C127.698 31.096 127.186 30.864 126.738 30.4C126.29 29.92 126.066 29.248 126.066 28.384C126.066 27.968 126.114 27.496 126.21 26.968C126.306 26.44 126.418 25.904 126.546 25.36C126.674 24.8 126.786 24.28 126.882 23.8C126.978 23.304 127.026 22.896 127.026 22.576C127.026 22.24 126.962 21.976 126.834 21.784C126.722 21.576 126.57 21.472 126.378 21.472C126.074 21.472 125.762 21.68 125.442 22.096L125.298 22C125.282 21.744 125.338 21.44 125.466 21.088C125.594 20.736 125.794 20.4 126.066 20.08C126.338 19.744 126.682 19.464 127.098 19.24C127.53 19.016 128.034 18.904 128.61 18.904C129.458 18.904 130.074 19.152 130.458 19.648C130.842 20.128 131.034 20.712 131.034 21.4C131.034 21.512 131.026 21.632 131.01 21.76C131.01 21.872 131.002 21.984 130.986 22.096C131.562 21.056 132.162 20.264 132.786 19.72C133.426 19.16 134.018 18.88 134.562 18.88C135.074 18.88 135.45 19.08 135.69 19.48C135.93 19.88 136.05 20.36 136.05 20.92C136.05 21.432 135.946 21.952 135.738 22.48C135.546 23.008 135.25 23.448 134.85 23.8C134.466 24.136 133.994 24.296 133.434 24.28L133.338 24.232C133.322 23.816 133.186 23.488 132.93 23.248C132.674 23.008 132.386 22.888 132.066 22.888C131.634 22.888 131.226 23.104 130.842 23.536C130.474 23.968 130.29 24.592 130.29 25.408C130.29 25.904 130.346 26.44 130.458 27.016C130.57 27.592 130.626 28.08 130.626 28.48C130.626 28.96 130.514 29.4 130.29 29.8C130.066 30.2 129.778 30.52 129.426 30.76C129.074 30.984 128.69 31.096 128.274 31.096ZM141.064 18.16C140.424 18.16 139.896 17.968 139.48 17.584C139.08 17.184 138.88 16.688 138.88 16.096C138.88 15.456 139.12 14.904 139.6 14.44C140.08 13.976 140.664 13.744 141.352 13.744C141.992 13.744 142.512 13.944 142.912 14.344C143.328 14.744 143.536 15.24 143.536 15.832C143.536 16.472 143.296 17.024 142.816 17.488C142.336 17.936 141.752 18.16 141.064 18.16ZM139.384 31.096C138.76 31.096 138.2 30.88 137.704 30.448C137.208 30 136.96 29.288 136.96 28.312C136.96 27.752 137.032 27.232 137.176 26.752C137.336 26.256 137.512 25.776 137.704 25.312C137.912 24.848 138.088 24.4 138.232 23.968C138.392 23.52 138.472 23.08 138.472 22.648C138.472 22.264 138.408 21.992 138.28 21.832C138.152 21.656 138 21.568 137.824 21.568C137.552 21.568 137.288 21.744 137.032 22.096L136.864 22C136.928 21.36 137.128 20.816 137.464 20.368C137.816 19.904 138.24 19.544 138.736 19.288C139.248 19.032 139.752 18.904 140.248 18.904C140.856 18.904 141.384 19.104 141.832 19.504C142.28 19.888 142.504 20.52 142.504 21.4C142.504 21.928 142.424 22.488 142.264 23.08C142.12 23.656 141.944 24.232 141.736 24.808C141.544 25.384 141.368 25.92 141.208 26.416C141.064 26.912 140.992 27.336 140.992 27.688C140.992 27.992 141.048 28.208 141.16 28.336C141.288 28.464 141.424 28.528 141.568 28.528C141.712 28.528 141.848 28.488 141.976 28.408C142.12 28.312 142.224 28.208 142.288 28.096L142.456 28.144C142.456 28.736 142.296 29.256 141.976 29.704C141.672 30.136 141.288 30.48 140.824 30.736C140.36 30.976 139.88 31.096 139.384 31.096ZM147.578 31.096C147.002 31.096 146.458 30.896 145.946 30.496C145.45 30.096 145.042 29.512 144.722 28.744C144.418 27.976 144.266 27.048 144.266 25.96C144.266 24.84 144.426 23.84 144.746 22.96C145.066 22.08 145.482 21.336 145.994 20.728C146.522 20.104 147.09 19.632 147.698 19.312C148.322 18.992 148.93 18.832 149.522 18.832C150.178 18.832 150.762 19.04 151.274 19.456C151.786 19.856 152.138 20.488 152.33 21.352C152.474 20.552 152.594 19.792 152.69 19.072C152.802 18.336 152.858 17.688 152.858 17.128C152.858 16.392 152.762 15.856 152.57 15.52V15.376C152.938 14.96 153.338 14.656 153.77 14.464C154.218 14.256 154.642 14.152 155.042 14.152C155.57 14.152 156.018 14.32 156.386 14.656C156.754 14.976 156.938 15.44 156.938 16.048C156.938 16.384 156.882 16.88 156.77 17.536C156.658 18.192 156.522 18.944 156.362 19.792C156.202 20.624 156.034 21.488 155.858 22.384C155.698 23.264 155.562 24.112 155.45 24.928C155.338 25.728 155.282 26.424 155.282 27.016C155.282 27.512 155.33 27.912 155.426 28.216C155.538 28.504 155.714 28.648 155.954 28.648C156.13 28.648 156.306 28.592 156.482 28.48C156.674 28.352 156.802 28.208 156.866 28.048L157.034 28.168C157.034 28.696 156.866 29.184 156.53 29.632C156.194 30.064 155.77 30.416 155.258 30.688C154.746 30.96 154.218 31.096 153.674 31.096C153.082 31.096 152.61 30.936 152.258 30.616C151.922 30.28 151.682 29.856 151.538 29.344C151.394 28.832 151.314 28.304 151.298 27.76C150.802 28.912 150.218 29.76 149.546 30.304C148.89 30.832 148.234 31.096 147.578 31.096ZM149.186 28.048C149.602 28.048 150.066 27.672 150.578 26.92C151.09 26.168 151.538 25.072 151.922 23.632L152.066 22.888C151.81 22.296 151.53 21.88 151.226 21.64C150.938 21.384 150.658 21.256 150.386 21.256C149.986 21.256 149.61 21.48 149.258 21.928C148.906 22.36 148.618 22.92 148.394 23.608C148.186 24.28 148.082 24.992 148.082 25.744C148.082 26.464 148.186 27.032 148.394 27.448C148.602 27.848 148.866 28.048 149.186 28.048ZM163.759 35.8C162.975 35.8 162.327 35.568 161.815 35.104C161.303 34.64 161.047 33.984 161.047 33.136C161.047 32.224 161.367 31.152 162.007 29.92C161.895 29.952 161.783 29.976 161.671 29.992C161.559 30.008 161.447 30.016 161.335 30.016C160.407 30.016 159.623 29.616 158.983 28.816C158.359 28 158.047 26.872 158.047 25.432C158.047 24.136 158.295 22.992 158.791 22C159.303 21.008 159.951 20.232 160.735 19.672C161.519 19.112 162.335 18.832 163.183 18.832C163.775 18.832 164.311 18.984 164.791 19.288C165.271 19.576 165.663 20.048 165.967 20.704C165.983 20.544 165.991 20.4 165.991 20.272C165.991 20.144 165.991 20.024 165.991 19.912C165.991 19.64 166.199 19.416 166.615 19.24C167.031 19.064 167.495 18.976 168.007 18.976C168.471 18.976 168.903 19.064 169.303 19.24C169.703 19.416 169.967 19.712 170.095 20.128L170.143 20.272C169.999 20.4 169.871 20.816 169.759 21.52C169.663 22.224 169.543 23.2 169.399 24.448C169.303 25.232 169.183 26.128 169.039 27.136C168.895 28.128 168.695 29.136 168.439 30.16C168.199 31.168 167.879 32.096 167.479 32.944C167.079 33.808 166.575 34.496 165.967 35.008C165.359 35.536 164.623 35.8 163.759 35.8ZM162.967 27.256C163.431 27.256 163.943 26.88 164.503 26.128C165.079 25.36 165.535 24.264 165.871 22.84C165.583 22.216 165.287 21.776 164.983 21.52C164.695 21.248 164.399 21.112 164.095 21.112C163.695 21.112 163.319 21.312 162.967 21.712C162.615 22.112 162.327 22.624 162.103 23.248C161.895 23.856 161.791 24.488 161.791 25.144C161.791 25.816 161.903 26.336 162.127 26.704C162.351 27.072 162.631 27.256 162.967 27.256ZM162.679 33.04C163.223 33.04 163.775 32.504 164.335 31.432C164.911 30.376 165.311 28.88 165.535 26.944C164.319 28.592 163.471 29.864 162.991 30.76C162.527 31.64 162.295 32.264 162.295 32.632C162.295 32.904 162.423 33.04 162.679 33.04ZM176.259 31.168C175.091 31.168 174.123 30.936 173.355 30.472C172.587 29.992 172.011 29.368 171.627 28.6C171.243 27.816 171.051 26.976 171.051 26.08C171.051 25.232 171.211 24.384 171.531 23.536C171.867 22.672 172.347 21.888 172.971 21.184C173.611 20.48 174.379 19.912 175.275 19.48C176.187 19.048 177.211 18.832 178.347 18.832C179.755 18.832 180.779 19.152 181.419 19.792C182.075 20.416 182.403 21.176 182.403 22.072C182.403 22.84 182.195 23.552 181.779 24.208C181.379 24.848 180.843 25.368 180.171 25.768C179.499 26.152 178.763 26.344 177.963 26.344C177.547 26.344 177.123 26.28 176.691 26.152C176.259 26.024 175.835 25.824 175.419 25.552C175.499 26.544 175.787 27.264 176.283 27.712C176.779 28.16 177.371 28.384 178.059 28.384C178.539 28.384 179.019 28.296 179.499 28.12C179.979 27.928 180.419 27.688 180.819 27.4C181.235 27.096 181.555 26.776 181.779 26.44L181.947 26.56C181.947 27.392 181.771 28.104 181.419 28.696C181.083 29.272 180.635 29.744 180.075 30.112C179.515 30.48 178.899 30.752 178.227 30.928C177.571 31.088 176.915 31.168 176.259 31.168ZM176.811 24.688C177.323 24.688 177.739 24.544 178.059 24.256C178.379 23.952 178.619 23.6 178.779 23.2C178.939 22.8 179.019 22.448 179.019 22.144C179.019 21.776 178.915 21.472 178.707 21.232C178.499 20.976 178.211 20.848 177.843 20.848C177.555 20.848 177.235 20.952 176.883 21.16C176.547 21.368 176.243 21.728 175.971 22.24C175.699 22.736 175.523 23.432 175.443 24.328C175.955 24.568 176.411 24.688 176.811 24.688Z" fill="black"/>
</svg>
