<svg width="46" height="46" viewBox="0 0 46 46" fill="none" xmlns="http://www.w3.org/2000/svg">
<path fill-rule="evenodd" clip-rule="evenodd" d="M12 0C5.37256 0 0 5.37305 0 12V34C0 40.627 5.37256 46 12 46H34C40.6274 46 46 40.627 46 34V12C46 5.37305 40.6274 0 34 0H12ZM14.183 31.0879C14.4647 31.125 14.759 31.1436 15.0659 31.1436C16.058 31.1436 17.026 30.8877 17.97 30.376C18.9299 29.8643 19.762 29.1123 20.4659 28.1201C21.1699 27.1279 21.626 25.9121 21.834 24.4717L21.522 24.3281C20.6899 25.4961 19.8419 26.3682 18.978 26.9443C18.13 27.5195 17.354 27.8076 16.65 27.8076C15.7379 27.8076 14.994 27.3516 14.418 26.4404C13.8419 25.5283 13.5859 24.1836 13.65 22.4082C13.682 21.7041 13.7939 21.0078 13.986 20.3203C14.178 19.6318 14.434 19.0078 14.754 18.4482C15.09 17.8721 15.4659 17.416 15.882 17.0801C16.298 16.7441 16.7379 16.5762 17.202 16.5762C17.5859 16.5762 17.906 16.6797 18.162 16.8877C18.418 17.0801 18.546 17.4561 18.546 18.0156C18.546 18.2881 18.506 18.6162 18.426 19C18.3459 19.3838 18.218 19.832 18.042 20.3438C19.0819 20.3438 19.9299 20.1836 20.5859 19.8643C21.2579 19.5283 21.754 19.1035 22.074 18.5918C22.4099 18.0645 22.578 17.5195 22.578 16.96C22.578 16.2402 22.386 15.6318 22.002 15.1357C21.7618 14.8154 21.4686 14.5459 21.1222 14.3262C20.9146 14.1943 20.6879 14.0801 20.442 13.9844C19.9436 13.7725 19.3966 13.6436 18.801 13.5967C18.632 13.583 18.4589 13.5762 18.282 13.5762C17.338 13.5762 16.354 13.7764 15.33 14.1758C14.322 14.5596 13.3779 15.1602 12.4979 15.9756C11.9381 16.4951 11.4399 17.1045 11.0032 17.8047C10.7533 18.2051 10.5236 18.6357 10.314 19.0957C9.73792 20.3604 9.41797 21.8643 9.354 23.6084C9.32202 24.584 9.40991 25.5283 9.61792 26.4404C9.84192 27.3359 10.1859 28.1436 10.65 28.8643C11.13 29.5684 11.73 30.1279 12.45 30.5439C12.9618 30.8223 13.5396 31.0039 14.183 31.0879ZM25.6172 30.3516C26.5452 30.8965 27.7372 31.168 29.1931 31.168C30.5051 31.168 31.6892 30.9922 32.7451 30.6396C33.8171 30.2725 34.7291 29.7998 35.4812 29.2236C36.2332 28.6318 36.8092 27.9922 37.2091 27.3037C37.6251 26.5996 37.8331 25.9043 37.8331 25.2158C37.8331 24.4316 37.5531 23.7197 36.9932 23.0801C36.4331 22.4404 35.5531 21.9844 34.3531 21.7119C36.3851 20.7842 37.4011 19.4883 37.4011 17.8242C37.4011 16.8965 37.0972 16.1123 36.4891 15.4717C35.8972 14.832 35.1292 14.3438 34.1852 14.0078C33.2412 13.6562 32.2332 13.4805 31.1611 13.4805C30.6354 13.4805 30.1125 13.5244 29.5928 13.6133C29.2584 13.6699 28.9252 13.7461 28.5931 13.8398C27.7451 14.0801 26.9772 14.4561 26.2892 14.9678C25.6012 15.4639 25.0492 16.0957 24.6332 16.8643C24.2172 17.6318 24.0092 18.5439 24.0092 19.5996L24.1532 19.6719C24.6492 18.8564 25.1212 18.2236 25.5692 17.7764C26.0172 17.3115 26.3932 17.0801 26.6971 17.0801C26.9691 17.0801 27.1051 17.2881 27.1051 17.7041C27.1051 18.0723 27.0172 18.5596 26.8412 19.168C26.6652 19.7598 26.4491 20.416 26.1931 21.1357C25.9371 21.8564 25.6731 22.5918 25.4011 23.3438C25.1292 24.0801 24.8892 24.7764 24.6812 25.4316C24.4731 26.0879 24.3372 26.6396 24.2732 27.0879C24.2572 27.1523 24.2412 27.2402 24.2251 27.3516V27.6885C24.2251 28.9199 24.6892 29.8076 25.6172 30.3516ZM33.3452 19.6963C33.0411 20.0801 32.6091 20.4004 32.0492 20.6562C31.5051 20.8965 30.8651 21.0078 30.1292 20.9922C30.2091 20.5117 30.2732 20.04 30.3212 19.5762C30.3851 19.1123 30.4171 18.6484 30.4171 18.1836C30.4171 17.8965 30.4011 17.5996 30.3691 17.2959C30.3531 16.9922 30.3131 16.6885 30.2491 16.3838C31.4812 16.3838 32.3851 16.5996 32.9612 17.0322C33.5371 17.4482 33.8252 17.9277 33.8252 18.4717C33.8252 18.8877 33.6652 19.2959 33.3452 19.6963ZM31.6892 27.832C31.1611 28.1035 30.5531 28.2402 29.8651 28.2402C29.3052 28.2402 28.9211 28.1436 28.7131 27.9521C28.5051 27.7441 28.4011 27.4717 28.4011 27.1357C28.4011 26.8857 28.4385 26.6084 28.5132 26.3047C28.5531 26.1416 28.6038 25.9707 28.6652 25.792L29.2172 24.1836C29.4252 23.624 29.5612 23.0957 29.6251 22.5996C30.9211 22.7275 31.8732 23.0645 32.4812 23.6084C33.0891 24.1523 33.3932 24.7441 33.3932 25.3838C33.3932 25.8477 33.2412 26.3037 32.9371 26.752C32.6332 27.1836 32.2172 27.5439 31.6892 27.832Z" fill="black"/>
</svg>
