<svg width="46" height="46" viewBox="0 0 46 46" fill="none" xmlns="http://www.w3.org/2000/svg">
<rect width="46" height="46" rx="12" fill="black"/>
<path d="M15.066 31.144C14.058 31.144 13.186 30.944 12.45 30.544C11.73 30.128 11.13 29.568 10.65 28.864C10.186 28.144 9.84197 27.336 9.61797 26.44C9.40997 25.528 9.32197 24.584 9.35397 23.608C9.41797 21.864 9.73797 20.36 10.314 19.096C10.89 17.832 11.618 16.792 12.498 15.976C13.378 15.16 14.322 14.56 15.33 14.176C16.354 13.776 17.338 13.576 18.282 13.576C19.082 13.576 19.802 13.712 20.442 13.984C21.098 14.24 21.618 14.624 22.002 15.136C22.386 15.632 22.578 16.24 22.578 16.96C22.578 17.52 22.41 18.064 22.074 18.592C21.754 19.104 21.258 19.528 20.586 19.864C19.93 20.184 19.082 20.344 18.042 20.344C18.218 19.832 18.346 19.384 18.426 19C18.506 18.616 18.546 18.288 18.546 18.016C18.546 17.456 18.418 17.08 18.162 16.888C17.906 16.68 17.586 16.576 17.202 16.576C16.738 16.576 16.298 16.744 15.882 17.08C15.466 17.416 15.09 17.872 14.754 18.448C14.434 19.008 14.178 19.632 13.986 20.32C13.794 21.008 13.682 21.704 13.65 22.408C13.586 24.184 13.842 25.528 14.418 26.44C14.994 27.352 15.738 27.808 16.65 27.808C17.354 27.808 18.13 27.52 18.978 26.944C19.842 26.368 20.69 25.496 21.522 24.328L21.834 24.472C21.626 25.912 21.17 27.128 20.466 28.12C19.762 29.112 18.93 29.864 17.97 30.376C17.026 30.888 16.058 31.144 15.066 31.144ZM29.1932 31.168C27.7372 31.168 26.5452 30.896 25.6172 30.352C24.6892 29.808 24.2252 28.92 24.2252 27.688C24.2252 27.56 24.2252 27.448 24.2252 27.352C24.2412 27.24 24.2572 27.152 24.2732 27.088C24.3372 26.64 24.4732 26.088 24.6812 25.432C24.8892 24.776 25.1292 24.08 25.4012 23.344C25.6732 22.592 25.9372 21.856 26.1932 21.136C26.4492 20.416 26.6652 19.76 26.8412 19.168C27.0172 18.56 27.1052 18.072 27.1052 17.704C27.1052 17.288 26.9692 17.08 26.6972 17.08C26.3932 17.08 26.0172 17.312 25.5692 17.776C25.1212 18.224 24.6492 18.856 24.1532 19.672L24.0092 19.6C24.0092 18.544 24.2172 17.632 24.6332 16.864C25.0492 16.096 25.6012 15.464 26.2892 14.968C26.9772 14.456 27.7452 14.08 28.5932 13.84C29.4412 13.6 30.2972 13.48 31.1612 13.48C32.2332 13.48 33.2412 13.656 34.1852 14.008C35.1292 14.344 35.8972 14.832 36.4892 15.472C37.0972 16.112 37.4012 16.896 37.4012 17.824C37.4012 19.488 36.3852 20.784 34.3532 21.712C35.5532 21.984 36.4332 22.44 36.9932 23.08C37.5532 23.72 37.8332 24.432 37.8332 25.216C37.8332 25.904 37.6252 26.6 37.2092 27.304C36.8092 27.992 36.2332 28.632 35.4812 29.224C34.7292 29.8 33.8172 30.272 32.7452 30.64C31.6892 30.992 30.5052 31.168 29.1932 31.168ZM30.1292 20.992C30.8652 21.008 31.5052 20.896 32.0492 20.656C32.6092 20.4 33.0412 20.08 33.3452 19.696C33.6652 19.296 33.8252 18.888 33.8252 18.472C33.8252 17.928 33.5372 17.448 32.9612 17.032C32.3852 16.6 31.4812 16.384 30.2492 16.384C30.3132 16.688 30.3532 16.992 30.3692 17.296C30.4012 17.6 30.4172 17.896 30.4172 18.184C30.4172 18.648 30.3852 19.112 30.3212 19.576C30.2732 20.04 30.2092 20.512 30.1292 20.992ZM29.8652 28.24C30.5532 28.24 31.1612 28.104 31.6892 27.832C32.2172 27.544 32.6332 27.184 32.9372 26.752C33.2412 26.304 33.3932 25.848 33.3932 25.384C33.3932 24.744 33.0892 24.152 32.4812 23.608C31.8732 23.064 30.9212 22.728 29.6252 22.6C29.5612 23.096 29.4252 23.624 29.2172 24.184C29.0252 24.744 28.8412 25.28 28.6652 25.792C28.4892 26.304 28.4012 26.752 28.4012 27.136C28.4012 27.472 28.5052 27.744 28.7132 27.952C28.9212 28.144 29.3052 28.24 29.8652 28.24Z" fill="white"/>
</svg>
